HIERARCHY
ROOT root
{
	OFFSET	0	13.1	24.9
	CHANNELS 6  Xposition Yposition Zposition Xrotation Yrotation Zrotation
	JOINT spine_1
	{
		OFFSET	0	9.99999	0
		CHANNELS 3  Xrotation Yrotation Zrotation
		JOINT spine_2
		{
			OFFSET	0	112	-10
			CHANNELS 3  Xrotation Yrotation Zrotation
			JOINT spine_3
			{
				OFFSET	0	206.5	19.3
				CHANNELS 3  Xrotation Yrotation Zrotation
				JOINT spine_4
				{
					OFFSET	0	110.4	14.6
					CHANNELS 3  Xrotation Yrotation Zrotation
					JOINT neck_1
					{
						OFFSET	0	71.8	-50.3
						CHANNELS 3  Xrotation Yrotation Zrotation
						JOINT neck_2
						{
							OFFSET	0	86.2	-25.8
							CHANNELS 3  Xrotation Yrotation Zrotation
							JOINT head_ee
							{
								OFFSET	0	179.8	-8.7
								CHANNELS 3  Xrotation Yrotation Zrotation
								End Site
								{
									OFFSET	1	0	0
								}
							}
						}
					}
					JOINT left_clavicle
					{
						OFFSET	-43.2	22.4	-70.8
						CHANNELS 3  Xrotation Yrotation Zrotation
						JOINT left_shoulder
						{
							OFFSET	-93.9	-5.79999	48.7
							CHANNELS 3  Xrotation Yrotation Zrotation
							JOINT left_elbow
							{
								OFFSET	-291.4	-30.8	15.2
								CHANNELS 3  Xrotation Yrotation Zrotation
								JOINT left_lowarm_twist
								{
									OFFSET	-110.7	-3.89999	13.6
									CHANNELS 3  Xrotation Yrotation Zrotation
									JOINT left_hand
									{
										OFFSET	-110.7	-3.89999	13.6
										CHANNELS 3  Xrotation Yrotation Zrotation
										JOINT left_ee
										{
											OFFSET	-80.8	-5.10001	12.1
											CHANNELS 3  Xrotation Yrotation Zrotation
											End Site
											{
												OFFSET	1	0	0
											}
										}
									}
								}
							}
						}
					}
					JOINT right_clavicle
					{
						OFFSET	43.2	22.4	-70.8
						CHANNELS 3  Xrotation Yrotation Zrotation
						JOINT right_shoulder
						{
							OFFSET	93.9	-5.79999	48.7
							CHANNELS 3  Xrotation Yrotation Zrotation
							JOINT right_elbow
							{
								OFFSET	291.4	-30.8	15.2
								CHANNELS 3  Xrotation Yrotation Zrotation
								JOINT right_lowarm_twist
								{
									OFFSET	110.7	-3.89999	13.6
									CHANNELS 3  Xrotation Yrotation Zrotation
									JOINT right_hand
									{
										OFFSET	110.7	-3.89999	13.6
										CHANNELS 3  Xrotation Yrotation Zrotation
										JOINT right_ee
										{
											OFFSET	80.8	-5.10001	12.1
											CHANNELS 3  Xrotation Yrotation Zrotation
											End Site
											{
												OFFSET	1	0	0
											}
										}
									}
								}
							}
						}
					}
				}
			}
		}
	}
	JOINT left_hip
	{
		OFFSET	-82.8	-127.5	0.300001
		CHANNELS 3  Xrotation Yrotation Zrotation
		JOINT left_knee
		{
			OFFSET	-28.2	-396.7	2.2
			CHANNELS 3  Xrotation Yrotation Zrotation
			JOINT left_ankle
			{
				OFFSET	-11.7	-411.3	35.4
				CHANNELS 3  Xrotation Yrotation Zrotation
				JOINT left_toes
				{
					OFFSET	0	-60	-88.6
					CHANNELS 3  Xrotation Yrotation Zrotation
					JOINT left_foot_ee
					{
						OFFSET	-22.5	-16.5	-42.2
						CHANNELS 3  Xrotation Yrotation Zrotation
						End Site
						{
							OFFSET	1	0	0
						}
					}
				}
			}
		}
	}
	JOINT right_hip
	{
		OFFSET	82.8	-127.5	0.300001
		CHANNELS 3  Xrotation Yrotation Zrotation
		JOINT right_knee
		{
			OFFSET	28.2	-396.7	2.2
			CHANNELS 3  Xrotation Yrotation Zrotation
			JOINT right_ankle
			{
				OFFSET	11.7	-411.3	35.4
				CHANNELS 3  Xrotation Yrotation Zrotation
				JOINT right_toes
				{
					OFFSET	0	-60	-88.6
					CHANNELS 3  Xrotation Yrotation Zrotation
					JOINT right_foot_ee
					{
						OFFSET	22.5	-16.5	-42.2
						CHANNELS 3  Xrotation Yrotation Zrotation
						End Site
						{
							OFFSET	1	0	0
						}
					}
				}
			}
		}
	}
}
MOTION
Frames: 5
Frame Time: 0.02
2506.07547183 763.593 -1536.30554599 172.525291749 66.4168015554 -171.263185286 -1.5516 -0.152845 -2.19706 -1.54891 -0.0127645 -2.20233 -1.54617 0.508639 -2.14286 -1.55254 0.163916 -2.19626 -20.4597 8.7727 3.10772 -20.786 15.3684 6.67077 -0.0 0.0 -0.0 6.89127 25.2107 12.1208 -13.2866 -5.79703 64.6909 0.218639 -6.1816 0.0118059 3.86737 0.120117 -0.479283 -2.2077 8.36008 -10.8616 -0.0 0.0 -0.0 6.60242 -19.2775 -12.1982 -2.33299 28.8253 -57.4511 2.44492 50.4468 -1.15185 5.29184 -0.156162 0.657672 0.839494 -28.9728 -16.0028 0.0 0.0 0.0 4.87995 -6.57787 -11.0495 -35.0414 -0.181805 5.29178 26.5534 25.5509 -3.71087 22.2837 -0.0 -0.0 -0.0 0.0 -0.0 16.4174 9.20307 -3.19752 -39.3306 0.42473 -5.90436 34.738 -11.3782 4.39507 -16.8731 0.0 0.0 0.0 0.0 0.0 
2499.61994263 763.765 -1523.61776277 172.495480639 64.1129943312 -171.681270209 -1.57646 -0.180764 -2.09388 -1.57403 -0.0471886 -2.10113 -1.57018 0.452068 -2.05249 -1.57604 0.122317 -2.0981 -20.2871 8.44669 2.48314 -20.6045 15.0409 5.92545 -0.0 0.0 -0.0 6.74194 25.2045 11.9159 -13.4224 -5.76327 64.7887 0.237355 -6.70613 0.0139064 3.62465 0.113532 -0.448977 -2.30264 8.54588 -11.3956 -0.0 0.0 -0.0 7.40286 -19.6059 -13.4116 -1.54674 28.1952 -57.1832 2.24764 48.0652 -1.00235 5.23424 -0.154791 0.650442 0.818412 -28.4703 -15.7352 0.0 0.0 0.0 6.80893 -6.04692 -9.76661 -30.3436 0.0307519 4.60249 26.8208 25.2141 -3.73592 21.3881 -0.0 -0.0 -0.0 0.0 -0.0 16.0004 9.43903 -3.06845 -40.41 0.493054 -6.05557 35.0977 -12.1916 4.43737 -16.8858 0.0 0.0 0.0 0.0 0.0 
2497.22496032 763.765 -1505.95308719 173.28914159 60.7939246004 -172.576028709 -1.57646 -0.180764 -2.09388 -1.57403 -0.0471886 -2.10113 -1.57018 0.452068 -2.05249 -1.57604 0.122317 -2.0981 -20.2871 8.44669 2.48314 -20.6045 15.0409 5.92545 -0.0 0.0 -0.0 6.74194 25.2045 11.9159 -13.4224 -5.76327 64.7887 0.237355 -6.70613 0.0139064 3.62465 0.113532 -0.448977 -2.30264 8.54588 -11.3956 -0.0 0.0 -0.0 7.40286 -19.6059 -13.4116 -1.54674 28.1952 -57.1832 2.24764 48.0652 -1.00235 5.23424 -0.154791 0.650442 0.818412 -28.4703 -15.7352 0.0 0.0 0.0 6.80893 -6.04692 -9.76661 -30.3436 0.0307519 4.60249 26.8208 25.2141 -3.73592 21.3881 -0.0 -0.0 -0.0 0.0 -0.0 16.0004 9.43903 -3.06845 -40.41 0.493054 -6.05557 35.0977 -12.1916 4.43737 -16.8858 0.0 0.0 0.0 0.0 0.0 
2495.46585375 765.445 -1495.59585385 173.671211559 59.680029361 -173.334617521 -1.64565 -0.160614 -2.01004 -1.6434 -0.0324108 -2.01618 -1.64029 0.448693 -1.96591 -1.64566 0.13265 -2.01207 -19.562 8.26197 2.45783 -19.8439 14.6574 5.71509 -0.0 0.0 -0.0 6.73406 24.9802 11.9262 -12.9557 -5.59615 65.5811 0.317384 -8.93525 0.0247983 4.31961 0.132041 -0.535822 -2.32778 9.81954 -10.9255 -0.0 0.0 -0.0 7.32779 -18.6982 -13.3755 -2.28801 28.5914 -56.5476 2.22525 47.7801 -0.985731 6.34333 -0.179918 0.789889 1.11961 -29.2238 -17.6598 0.0 0.0 0.0 8.22152 -5.55325 -8.95821 -28.4922 0.0988586 4.32653 28.785 23.8252 -3.93927 21.4858 -0.0 -0.0 -0.0 0.0 -0.0 14.512 10.1911 -2.12625 -38.0544 0.347651 -5.72398 35.1914 -14.0351 4.4655 -16.6882 0.0 0.0 0.0 0.0 0.0 
2495.66594992 765.129 -1494.57088426 174.587053844 60.1341109569 -174.295653543 -1.59589 -0.0353928 -1.93186 -1.59381 0.0875845 -1.93019 -1.59515 0.543343 -1.85424 -1.59987 0.243738 -1.91675 -18.8811 8.37615 2.41529 -19.1547 14.8598 5.62617 -0.0 0.0 -0.0 7.02366 24.8059 12.3451 -12.7229 -5.43104 65.7481 0.328477 -9.24224 0.0265506 3.93661 0.121971 -0.487934 -2.27035 8.95386 -10.9803 -0.0 0.0 -0.0 7.64372 -19.5217 -13.7945 -2.26825 28.318 -56.1099 2.22533 47.7811 -0.985793 5.97036 -0.171769 0.742942 0.987983 -28.6517 -16.7509 0.0 0.0 0.0 9.0685 -4.91119 -8.03846 -25.5084 0.189738 3.87768 28.1768 24.5672 -3.88404 21.1563 -0.0 -0.0 -0.0 0.0 -0.0 14.3428 9.72742 -1.46832 -37.1237 0.29399 -5.59139 35.0017 -12.9336 4.43488 -16.947 0.0 0.0 0.0 0.0 0.0 
